<svg width="31" height="16" viewBox="1 0 30 13" fill="none" xmlns="http://www.w3.org/2000/svg">
<path d="M0.74 12.5C0.953333 12.66 1.28 12.82 1.72 12.98C2.16 13.1267 2.68 13.2 3.28 13.2C3.86667 13.2 4.34 13.1067 4.7 12.92C5.07333 12.72 5.35333 12.4267 5.54 12.04C5.74 11.64 5.87333 11.1333 5.94 10.52C6.02 9.90667 6.06 9.18 6.06 8.34V0.799999H8.32V8.02C8.32 9.07333 8.26 10.04 8.14 10.92C8.03333 11.8 7.81333 12.5667 7.48 13.22C7.14667 13.86 6.64667 14.3533 5.98 14.7C5.32667 15.0467 4.44667 15.22 3.34 15.22C2.68667 15.22 2.10667 15.1467 1.6 15C1.09333 14.8533 0.626667 14.6333 0.2 14.34L0.74 12.5ZM19.7656 4.14C19.6323 3.99333 19.439 3.84 19.1856 3.68C18.9323 3.50667 18.6323 3.34667 18.2856 3.2C17.939 3.05333 17.5656 2.93333 17.1656 2.84C16.7656 2.74667 16.3523 2.7 15.9256 2.7C14.9923 2.7 14.299 2.87333 13.8456 3.22C13.3923 3.56667 13.1656 4.04667 13.1656 4.66C13.1656 5.11333 13.2923 5.47333 13.5456 5.74C13.799 5.99333 14.1856 6.20667 14.7056 6.38C15.2256 6.55333 15.879 6.74 16.6656 6.94C17.6256 7.16667 18.459 7.44 19.1656 7.76C19.8723 8.06667 20.4123 8.48 20.7856 9C21.159 9.52 21.3456 10.2067 21.3456 11.06C21.3456 11.78 21.2123 12.4 20.9456 12.92C20.679 13.44 20.3056 13.8667 19.8256 14.2C19.3456 14.52 18.7923 14.76 18.1656 14.92C17.539 15.0667 16.8656 15.14 16.1456 15.14C15.439 15.14 14.7323 15.0667 14.0256 14.92C13.3323 14.7733 12.6656 14.56 12.0256 14.28C11.399 13.9867 10.819 13.6333 10.2856 13.22L11.3056 11.3C11.479 11.4733 11.7256 11.6667 12.0456 11.88C12.379 12.08 12.759 12.2733 13.1856 12.46C13.6256 12.6467 14.099 12.8067 14.6056 12.94C15.1256 13.06 15.6523 13.12 16.1856 13.12C17.079 13.12 17.759 12.9667 18.2256 12.66C18.7056 12.34 18.9456 11.8867 18.9456 11.3C18.9456 10.82 18.7923 10.44 18.4856 10.16C18.179 9.86667 17.7323 9.62 17.1456 9.42C16.559 9.22 15.859 9.02 15.0456 8.82C14.1123 8.56667 13.3323 8.29333 12.7056 8C12.079 7.69333 11.6056 7.30667 11.2856 6.84C10.979 6.36 10.8256 5.75333 10.8256 5.02C10.8256 4.08667 11.0523 3.3 11.5056 2.66C11.959 2.00667 12.5723 1.52 13.3456 1.2C14.1323 0.866666 15.0123 0.699999 15.9856 0.699999C16.6256 0.699999 17.2323 0.773333 17.8056 0.919999C18.379 1.05333 18.9123 1.24 19.4056 1.48C19.9123 1.72 20.3723 1.99333 20.7856 2.3L19.7656 4.14ZM22.7322 12.5C22.9455 12.66 23.2722 12.82 23.7122 12.98C24.1522 13.1267 24.6722 13.2 25.2722 13.2C25.8589 13.2 26.3322 13.1067 26.6922 12.92C27.0655 12.72 27.3455 12.4267 27.5322 12.04C27.7322 11.64 27.8655 11.1333 27.9322 10.52C28.0122 9.90667 28.0522 9.18 28.0522 8.34V0.799999H30.3122V8.02C30.3122 9.07333 30.2522 10.04 30.1322 10.92C30.0255 11.8 29.8055 12.5667 29.4722 13.22C29.1389 13.86 28.6389 14.3533 27.9722 14.7C27.3189 15.0467 26.4389 15.22 25.3322 15.22C24.6789 15.22 24.0989 15.1467 23.5922 15C23.0855 14.8533 22.6189 14.6333 22.1922 14.34L22.7322 12.5Z" fill="#228BE6"/>
</svg>